<?xml version="1.0" standalone="no"?>
<!DOCTYPE svg PUBLIC "-//W3C//DTD SVG 20010904//EN"
 "http://www.w3.org/TR/2001/REC-SVG-20010904/DTD/svg10.dtd">
<svg version="1.0" xmlns="http://www.w3.org/2000/svg"
 width="633.000000pt" height="737.000000pt" viewBox="0 0 633.000000 737.000000"
 preserveAspectRatio="xMidYMid meet">

<g transform="translate(0.000000,737.000000) scale(0.100000,-0.100000)"
fill="#000000" stroke="none">
<path d="M3070 7311 c-14 -5 -47 -22 -75 -39 -73 -46 -236 -125 -345 -168 -86
-34 -117 -46 -217 -90 -41 -18 -108 -18 -174 2 -101 29 -114 32 -184 44 -38 6
-88 16 -110 20 -22 5 -106 14 -187 21 -196 15 -413 0 -628 -44 -71 -14 -114
-53 -104 -94 10 -40 30 -79 81 -155 27 -40 45 -78 45 -97 1 -33 -26 -71 -49
-71 -36 0 -161 -80 -213 -137 -50 -55 -60 -76 -60 -134 0 -50 2 -53 67 -118
40 -39 95 -80 133 -100 80 -40 127 -69 166 -99 l29 -23 -79 6 c-43 4 -103 15
-132 25 -62 22 -201 92 -259 131 -100 67 -171 75 -251 30 -101 -58 -202 -202
-218 -309 -6 -43 4 -99 30 -158 48 -109 258 -197 559 -234 106 -13 181 -27
250 -45 92 -25 215 -37 550 -55 94 -5 283 -16 420 -24 436 -27 1348 -19 1625
14 269 32 434 55 515 71 28 5 75 14 105 20 30 6 73 15 95 19 112 25 279 63
350 81 384 93 673 51 845 -121 36 -36 77 -90 92 -120 56 -114 80 -295 58 -427
-38 -223 -185 -352 -399 -353 -104 0 -137 15 -222 100 -81 83 -140 180 -165
277 -17 65 -18 212 -3 284 6 28 12 98 13 155 1 91 -1 106 -19 123 -28 29 -78
37 -98 17 -8 -9 -20 -16 -24 -16 -5 0 -18 -8 -29 -18 -10 -9 -39 -33 -64 -52
-25 -19 -47 -37 -50 -40 -3 -3 -32 -27 -64 -54 -304 -244 -760 -698 -936 -930
-54 -72 -234 -292 -252 -310 -18 -17 -24 -17 -61 -6 -83 24 -239 113 -281 159
-64 70 -60 225 8 386 35 82 34 135 -5 210 -49 95 -125 165 -179 165 -59 0
-140 -73 -170 -152 -6 -18 -16 -42 -20 -53 -22 -54 -31 -131 -30 -269 1 -197
2 -186 -14 -186 -16 0 -143 139 -196 215 -25 36 -101 124 -170 198 -202 216
-497 393 -735 442 -59 12 -127 15 -322 12 -236 -3 -282 -7 -328 -27 -330 -144
-503 -251 -655 -404 -112 -113 -184 -216 -271 -386 l-59 -115 0 -490 c0 -489
0 -490 24 -565 21 -68 41 -117 81 -205 57 -123 148 -251 254 -355 60 -60 156
-139 201 -165 10 -5 50 -31 89 -58 39 -26 74 -47 77 -47 3 0 19 -9 34 -20 45
-32 213 -116 277 -139 96 -33 190 -50 343 -60 289 -19 717 32 875 104 17 8 46
21 65 29 38 17 39 18 155 93 95 63 131 90 216 165 35 31 74 66 87 76 12 11 22
22 22 25 0 3 18 25 41 49 22 23 45 53 52 64 24 44 95 130 141 173 41 37 52 42
79 37 33 -7 93 -48 167 -114 26 -23 63 -54 83 -70 32 -24 101 -83 277 -235 86
-75 104 -88 310 -223 19 -13 62 -35 95 -49 33 -15 74 -33 90 -40 63 -28 235
-89 340 -120 50 -15 104 -34 121 -42 26 -13 87 -15 449 -11 305 4 420 8 423
16 2 7 15 12 28 12 13 0 34 10 46 23 13 12 39 31 59 42 87 48 133 87 285 239
224 225 296 344 361 591 14 56 18 107 17 260 0 248 -14 312 -102 494 -28 57
-200 241 -226 241 -7 0 -20 7 -27 16 -14 17 -113 84 -142 96 -54 23 -16 71
102 131 80 40 212 162 274 255 25 37 61 101 80 142 91 193 107 252 107 390 0
163 -30 377 -60 432 -6 10 -10 23 -10 29 0 17 -47 107 -86 166 -45 67 -179
202 -247 247 -131 87 -331 158 -569 201 -20 4 -43 14 -52 24 -13 15 -10 23 30
85 36 56 44 78 44 115 0 75 -54 140 -189 226 -89 58 -131 86 -136 95 -6 10 23
68 75 153 34 55 48 109 40 152 -6 34 -56 72 -104 79 -173 25 -220 28 -451 23
-309 -6 -377 -13 -645 -67 -124 -25 -151 -22 -249 26 -41 20 -109 49 -150 64
-181 67 -248 96 -276 121 -30 27 -157 89 -180 88 -11 0 -31 -4 -45 -8z m95
-62 c54 -45 167 -102 285 -144 187 -66 287 -114 349 -168 29 -24 39 -28 70
-22 20 4 41 10 46 15 41 31 397 102 580 114 164 12 604 -24 626 -50 16 -20
-27 -86 -137 -209 -52 -58 -94 -112 -94 -119 0 -22 21 -34 95 -52 79 -20 150
-55 233 -116 108 -79 122 -112 75 -169 -28 -33 -159 -122 -223 -151 -137 -62
-166 -72 -241 -83 -25 -3 -68 -14 -95 -24 -159 -59 -662 -89 -939 -57 -94 11
-178 28 -255 52 -197 61 -343 118 -382 150 -35 28 -54 23 -171 -40 -106 -58
-279 -113 -407 -129 -19 -3 -93 -12 -165 -21 -152 -20 -481 -23 -637 -6 -56 6
-148 15 -203 21 -94 10 -172 33 -310 94 -16 8 -57 23 -90 36 -63 23 -175 95
-237 153 -53 49 -50 73 15 138 53 54 141 104 290 164 38 15 71 33 74 41 3 8
-10 30 -29 51 -61 65 -178 248 -178 280 0 24 140 46 380 58 263 13 681 -48
797 -116 54 -32 90 -26 225 38 121 58 161 74 308 127 41 15 86 38 100 50 14
12 41 28 61 34 19 6 55 31 79 56 24 25 47 45 50 45 3 0 28 -19 55 -41z m-2418
-1113 c51 -35 108 -69 125 -76 18 -7 52 -21 75 -31 23 -10 72 -26 110 -34 37
-9 84 -20 104 -26 20 -5 48 -9 63 -9 14 0 34 -4 44 -9 9 -5 69 -16 132 -26 63
-9 138 -20 165 -25 28 -5 91 -14 140 -20 50 -6 117 -15 150 -20 451 -67 1658
-67 2120 0 39 6 104 15 145 21 111 15 311 50 395 68 22 5 67 15 100 22 33 7
101 22 150 34 91 22 151 35 260 55 33 6 130 14 217 17 156 6 194 1 283 -36 11
-5 58 -21 105 -36 168 -54 283 -127 395 -247 121 -130 176 -233 216 -403 32
-136 34 -205 9 -310 -12 -49 -24 -101 -26 -115 -3 -14 -9 -34 -13 -45 -5 -11
-14 -38 -21 -60 -46 -146 -147 -287 -314 -437 l-103 -94 -129 -4 c-338 -10
-383 -4 -529 66 -149 72 -312 207 -380 314 -12 19 -43 76 -69 125 -57 109 -71
125 -98 117 -36 -9 -312 -290 -542 -552 -66 -74 -151 -167 -189 -207 -74 -76
-82 -103 -30 -102 74 1 216 23 408 64 72 15 150 31 175 36 25 5 65 13 90 19
184 42 296 56 543 66 94 4 175 3 225 -5 236 -36 287 -49 407 -106 195 -94 404
-272 462 -395 143 -301 91 -748 -120 -1030 -88 -119 -320 -338 -432 -409 -63
-40 -175 -75 -302 -97 -120 -19 -463 -22 -573 -4 -88 14 -186 37 -217 50 -109
47 -201 80 -222 80 -12 0 -29 4 -39 10 -33 18 -247 117 -270 124 -12 4 -27 16
-32 27 -6 10 -18 19 -28 19 -9 0 -35 19 -57 41 -22 23 -87 80 -145 127 -58 48
-125 105 -149 127 -127 114 -194 177 -276 256 -111 108 -147 139 -161 139 -6
0 -19 -10 -30 -22 -31 -36 -217 -261 -242 -294 -107 -139 -201 -223 -377 -339
-178 -118 -266 -158 -440 -203 -127 -33 -410 -62 -610 -62 -129 0 -151 5 -323
64 -158 55 -271 117 -432 235 -25 18 -71 46 -103 64 -65 34 -142 114 -177 182
-13 25 -31 47 -42 51 -36 11 -168 216 -168 262 0 11 -15 56 -34 99 -75 177
-105 357 -105 648 -1 219 6 271 51 400 20 59 99 215 123 245 6 8 14 22 17 30
8 22 123 175 170 226 107 117 423 308 618 374 141 48 587 47 725 -2 273 -98
487 -252 674 -488 41 -52 108 -133 148 -180 40 -47 92 -113 115 -146 24 -34
68 -90 98 -125 30 -35 120 -138 199 -229 248 -285 286 -318 311 -271 24 46 12
67 -136 227 -110 120 -144 161 -182 221 -40 63 -99 196 -119 271 -19 73 -23
266 -5 283 6 7 12 29 12 49 0 71 106 240 151 240 20 0 37 -22 104 -135 34 -58
44 -84 38 -95 -87 -139 -108 -203 -108 -325 0 -89 3 -106 27 -156 28 -56 70
-97 149 -144 123 -72 305 -130 343 -108 8 4 29 35 46 67 29 55 113 167 220
296 48 58 54 66 171 200 270 311 914 890 991 890 23 0 23 -21 2 -97 -86 -313
-68 -440 98 -680 115 -166 207 -206 408 -179 124 18 158 27 213 60 75 44 130
121 149 209 18 85 28 246 22 362 -7 136 -22 211 -52 271 -42 83 -221 222 -332
257 -157 51 -406 49 -685 -5 -145 -28 -148 -29 -170 -38 -57 -24 -154 -46
-275 -60 -41 -5 -95 -14 -120 -20 -123 -28 -445 -72 -655 -90 -141 -11 -1059
-12 -1365 0 -399 15 -800 43 -954 66 -194 29 -221 33 -241 38 -11 3 -60 12
-110 21 -321 57 -450 108 -518 205 -24 34 -23 125 2 176 28 57 85 119 150 163
99 67 104 66 218 -13z m2583 -89 c52 -19 164 -52 248 -72 163 -41 196 -55 175
-76 -21 -21 -162 -29 -663 -35 -481 -6 -849 5 -910 28 -23 9 -23 10 -7 20 10
5 64 14 120 19 265 26 282 28 427 57 25 5 99 27 165 50 160 54 147 51 255 47
77 -3 113 -10 190 -38z m1243 -1297 c15 -16 27 -34 27 -38 0 -4 86 -97 191
-206 124 -128 188 -201 182 -207 -10 -10 -53 -17 -268 -45 -275 -36 -471 -72
-638 -118 -32 -9 -63 -14 -68 -10 -35 22 20 102 212 307 47 51 110 119 140
151 112 123 182 196 189 196 4 0 19 -13 33 -30z"/>
<path d="M3078 7081 c-20 -10 -49 -28 -65 -39 -42 -30 -126 -67 -223 -97 -47
-15 -93 -31 -102 -36 -10 -5 -24 -9 -31 -9 -8 0 -31 -12 -52 -26 -21 -14 -44
-23 -52 -20 -59 23 -112 -119 -113 -301 0 -214 61 -278 265 -276 94 0 168 14
240 43 17 7 39 16 50 20 11 4 32 13 46 20 36 17 102 8 176 -24 87 -37 141 -48
270 -53 200 -8 260 38 294 226 18 104 -5 212 -58 277 -47 56 -223 146 -412
210 -82 28 -122 47 -146 71 -39 38 -38 38 -87 14z m213 -166 c57 -20 149 -58
204 -84 158 -77 214 -147 223 -276 4 -58 0 -80 -18 -123 -28 -66 -56 -88 -128
-103 -74 -15 -189 1 -330 47 -57 19 -118 34 -135 34 -42 0 -162 -32 -212 -56
-56 -26 -252 -28 -306 -2 -54 26 -72 77 -71 204 0 171 30 207 232 281 30 12
75 26 100 34 25 7 50 15 55 19 6 3 37 14 70 25 33 11 71 25 85 33 36 19 109 8
231 -33z"/>
<path d="M1363 6926 c-18 -8 -33 -20 -33 -26 0 -21 217 -240 335 -338 116 -96
322 -215 492 -283 176 -71 205 -79 218 -60 3 6 -12 47 -33 93 -22 46 -45 98
-52 117 -20 50 -18 174 5 264 24 95 26 92 -103 132 -201 61 -289 77 -532 95
-69 5 -156 12 -195 15 -51 4 -79 1 -102 -9z m477 -101 c63 -8 142 -20 175 -27
74 -14 170 -60 186 -90 15 -27 32 -369 19 -382 -28 -28 -281 105 -471 249
-188 144 -270 231 -242 258 12 12 216 7 333 -8z"/>
<path d="M4390 6905 c-185 -20 -376 -81 -424 -134 -20 -22 -35 -120 -36 -233
0 -124 -49 -257 -107 -293 -47 -29 -44 -55 7 -55 22 0 48 4 58 9 9 5 33 16 52
24 103 44 373 174 445 214 121 68 242 161 356 273 62 61 149 166 149 180 0 29
-291 39 -500 15z m324 -81 c21 -21 20 -36 -6 -70 -63 -82 -203 -192 -353 -277
-75 -42 -224 -111 -273 -127 -73 -23 -78 -15 -74 131 5 186 22 229 105 268 49
23 181 56 281 70 37 5 71 12 74 15 3 3 56 6 118 6 89 0 116 -3 128 -16z"/>
<path d="M1261 6490 c-35 -10 -75 -27 -90 -39 -14 -12 -41 -28 -58 -36 -38
-17 -40 -26 -15 -47 19 -16 127 -68 142 -68 6 0 18 -4 28 -10 22 -12 196 -70
245 -81 20 -5 56 -14 80 -19 131 -31 547 -63 547 -42 0 5 -33 21 -72 36 -179
68 -310 137 -431 226 -56 41 -113 81 -125 88 -32 18 -175 14 -251 -8z m190
-62 c18 -6 42 -20 53 -30 11 -10 24 -18 28 -18 12 0 111 -79 121 -97 27 -45
-24 -54 -143 -24 -200 50 -291 114 -212 148 22 10 81 27 113 32 3 1 21 -4 40
-11z"/>
<path d="M4745 6497 c-11 -7 -83 -53 -160 -104 -175 -114 -312 -184 -427 -219
-32 -10 -58 -23 -58 -31 0 -24 388 6 558 43 37 8 81 17 97 21 17 3 68 21 115
40 47 18 109 39 139 46 58 13 121 60 121 91 0 43 -219 127 -326 125 -22 0 -48
-6 -59 -12z m188 -88 c30 -8 37 -15 37 -34 0 -20 -11 -30 -57 -54 -32 -16 -89
-38 -128 -49 -83 -25 -215 -39 -215 -25 0 20 89 92 151 124 52 26 104 41 164
48 6 0 27 -4 48 -10z"/>
<path d="M1175 4846 c-144 -25 -315 -95 -450 -182 -82 -53 -115 -84 -115 -108
0 -8 -11 -17 -24 -20 -66 -17 -210 -283 -284 -526 -21 -70 -23 -118 -9 -182 8
-34 20 -101 27 -148 23 -163 56 -271 129 -420 118 -241 257 -386 461 -482 258
-121 372 -150 652 -167 210 -13 355 0 491 44 59 19 113 35 121 35 8 0 33 16
57 36 24 20 61 44 84 55 51 24 193 146 407 351 180 172 212 212 202 252 -7 27
-107 149 -223 271 -189 199 -340 367 -472 525 -207 248 -314 362 -363 387 -17
9 -63 46 -102 83 -71 67 -105 87 -284 166 -98 43 -184 52 -305 30z m235 -96
c30 -17 62 -30 71 -30 22 0 122 -54 184 -100 120 -88 318 -282 466 -455 14
-16 60 -68 100 -115 41 -47 82 -95 90 -107 8 -12 77 -86 152 -164 75 -77 137
-144 137 -148 0 -4 21 -27 46 -51 65 -64 184 -215 184 -234 0 -34 -338 -354
-510 -482 -82 -62 -248 -151 -320 -172 -190 -57 -706 -20 -915 64 -129 53
-273 135 -344 198 -28 25 -116 135 -152 191 -102 158 -166 320 -195 494 -19
118 -15 390 7 471 28 101 143 273 251 376 136 131 300 214 558 283 69 18 131
12 190 -19z"/>
<path d="M4755 3821 c-11 -9 -80 -27 -160 -42 -27 -5 -68 -13 -90 -18 -256
-56 -360 -68 -699 -81 -330 -12 -345 -16 -391 -93 -14 -24 -25 -49 -25 -55 0
-21 156 -188 422 -453 201 -200 268 -261 310 -281 29 -14 121 -66 203 -115
187 -111 355 -193 463 -227 99 -31 235 -35 377 -11 296 51 470 171 590 408 57
113 68 185 60 377 -8 156 -23 220 -70 294 -133 209 -394 306 -820 306 -88 0
-165 -4 -170 -9z m420 -96 c44 -8 96 -18 115 -22 19 -3 40 -9 45 -13 6 -4 28
-13 50 -20 89 -28 215 -108 273 -174 75 -85 94 -159 89 -336 -5 -175 -22 -237
-105 -370 -79 -127 -181 -203 -345 -256 -132 -42 -243 -58 -357 -51 -75 4
-105 11 -195 47 -32 12 -266 128 -310 153 -116 66 -297 189 -379 259 -22 18
-49 40 -60 47 -12 8 -68 60 -124 115 -134 131 -152 149 -152 159 0 4 -39 47
-87 95 -86 85 -131 156 -120 185 8 21 40 25 272 37 116 6 226 15 245 21 19 5
52 9 74 9 21 0 66 4 100 10 33 5 108 16 166 25 137 21 292 53 355 72 28 8 68
19 90 24 57 11 266 2 360 -16z"/>
<path d="M3146 1765 c-15 -23 -15 -26 3 -44 11 -11 35 -27 52 -37 l33 -16 -48
-18 c-74 -29 -145 -87 -168 -140 -35 -82 -27 -136 27 -192 48 -49 113 -70 206
-66 l74 3 3 42 c5 65 -10 83 -66 83 -63 0 -96 18 -100 54 -5 40 38 82 99 97
43 11 49 16 49 38 0 53 -20 100 -43 103 -20 3 -18 5 16 26 40 25 47 51 21 76
-19 20 -19 20 -49 0 -23 -15 -27 -15 -50 0 -33 21 -40 20 -59 -9z m59 -27 c19
-8 31 -8 51 1 38 17 40 7 5 -18 -28 -20 -30 -21 -60 -4 -17 10 -31 21 -31 26
0 10 5 9 35 -5z m65 -110 c0 -7 3 -22 6 -33 4 -18 -4 -25 -50 -44 -68 -28 -98
-66 -94 -117 4 -49 42 -77 111 -84 50 -5 52 -6 55 -37 l3 -33 -58 0 c-83 0
-132 17 -175 60 -36 36 -43 54 -38 110 4 58 68 126 155 166 56 26 85 30 85 12z"/>
<path d="M4647 1603 c-104 -170 -167 -280 -167 -291 0 -11 96 -72 113 -72 4 0
15 15 24 34 18 39 35 46 114 46 53 0 57 -2 69 -30 22 -53 34 -55 94 -21 30 18
56 37 59 44 4 13 -4 27 -139 235 -52 78 -98 142 -103 142 -5 0 -34 -39 -64
-87z m172 -118 c56 -86 101 -159 101 -163 0 -7 -63 -42 -74 -42 -2 0 -13 16
-25 35 -20 34 -23 35 -78 35 -79 0 -133 -10 -133 -24 0 -7 -6 -20 -13 -30 -13
-18 -15 -18 -50 0 l-37 19 98 163 c53 89 100 162 103 162 4 0 52 -70 108 -155z"/>
<path d="M4672 1465 c-30 -62 -22 -79 37 -70 25 4 49 9 53 11 12 8 -36 104
-53 104 -8 0 -25 -20 -37 -45z m51 -19 c3 -8 -1 -17 -10 -20 -20 -8 -25 -3
-17 18 8 20 20 21 27 2z"/>
<path d="M781 1669 c-171 -34 -242 -253 -119 -366 82 -75 254 -71 340 9 46 44
62 87 63 164 0 60 -4 76 -27 111 -45 68 -154 103 -257 82z m169 -44 c82 -42
112 -141 71 -230 -35 -77 -102 -115 -198 -115 -114 1 -183 57 -191 156 -11
129 99 223 243 207 28 -3 61 -11 75 -18z"/>
<path d="M781 1574 c-31 -22 -51 -73 -51 -130 0 -39 5 -51 34 -80 38 -38 70
-43 115 -19 66 34 77 179 17 227 -27 22 -85 23 -115 2z m102 -31 c53 -60 13
-183 -59 -183 -33 0 -64 45 -64 92 0 42 21 93 42 101 28 11 66 6 81 -10z"/>
<path d="M1116 1671 c-2 -3 -7 -25 -11 -49 -10 -60 3 -72 81 -72 l63 0 -84
-137 c-63 -104 -81 -141 -73 -150 8 -10 52 -13 187 -11 l176 3 -1 23 c-1 20 0
21 15 9 24 -21 98 -47 114 -41 8 3 24 39 37 80 12 41 23 74 24 74 2 0 24 -31
50 -70 25 -38 50 -70 56 -70 5 0 32 34 61 76 28 42 52 74 54 72 2 -2 17 -40
35 -85 17 -46 35 -83 40 -83 5 0 34 11 65 24 38 17 55 30 54 43 -1 32 -154
358 -170 361 -9 2 -34 -31 -68 -88 -29 -50 -57 -89 -62 -88 -4 2 -32 44 -62
93 -30 50 -61 91 -69 93 -10 2 -36 -52 -89 -185 -51 -129 -75 -180 -77 -163
-7 45 -21 53 -89 47 -35 -3 -63 -2 -63 3 0 5 34 64 75 131 41 68 75 129 75
136 0 7 -10 15 -22 17 -39 8 -318 14 -322 7z m195 -31 c60 0 109 -4 109 -8 0
-5 -36 -66 -79 -136 -44 -71 -77 -135 -74 -142 4 -11 24 -14 82 -12 l76 3 3
-32 3 -33 -150 0 c-92 0 -151 4 -151 10 0 5 36 68 81 140 44 71 77 134 74 140
-3 5 -37 10 -75 10 -38 0 -71 3 -73 8 -3 4 -3 20 0 36 5 25 9 27 36 22 16 -3
78 -6 138 -6z m379 -102 c31 -50 61 -93 67 -95 11 -4 38 35 107 150 l22 39 59
-129 c97 -214 91 -190 50 -210 -22 -10 -39 -13 -45 -7 -5 5 -22 45 -38 89 -16
44 -36 81 -43 82 -8 2 -25 -16 -39 -39 -14 -22 -38 -59 -53 -81 l-29 -39 -49
80 c-32 51 -55 79 -63 76 -8 -3 -24 -44 -36 -91 l-23 -85 -31 6 c-17 4 -34 10
-39 15 -9 9 111 331 123 331 3 0 30 -42 60 -92z"/>
<path d="M2190 1671 l-95 -6 -3 -195 c-2 -174 -1 -196 15 -207 11 -9 56 -13
135 -13 l119 0 -3 58 -3 57 -57 3 c-42 2 -58 7 -58 17 0 10 15 15 48 17 l47 3
3 49 c4 56 -5 66 -60 66 -31 0 -38 4 -38 20 0 18 7 20 54 20 30 0 57 3 59 8 2
4 1 30 -2 57 -7 58 1 56 -161 46z m132 -46 c7 -32 3 -35 -47 -35 -52 0 -67
-16 -63 -67 l3 -38 48 3 c46 4 47 3 47 -27 0 -29 -2 -30 -47 -33 l-48 -3 0
-40 0 -40 58 -3 c56 -3 57 -4 57 -33 l0 -30 -102 3 -103 3 -3 177 -2 177 82 4
c46 1 90 4 99 5 11 1 18 -7 21 -23z"/>
<path d="M4352 1664 c-96 -25 -154 -78 -154 -140 0 -41 19 -66 80 -105 41 -26
42 -28 23 -38 -11 -6 -34 -11 -51 -11 -37 0 -42 -11 -32 -70 l8 -45 45 1 c97
1 209 84 209 155 0 34 -47 91 -90 109 -40 17 -38 28 8 35 62 11 60 9 51 60
-14 73 -12 72 -97 49z m68 -48 c0 -20 -7 -25 -44 -35 -30 -7 -45 -17 -49 -31
-5 -21 -1 -26 72 -73 44 -29 55 -48 47 -81 -12 -49 -80 -97 -157 -111 -35 -6
-37 -5 -41 23 -4 28 -2 30 33 36 41 7 72 31 67 52 -2 7 -28 30 -58 51 -47 33
-55 44 -58 73 -2 28 3 41 26 63 33 31 91 56 135 57 22 0 27 -4 27 -24z"/>
<path d="M5445 1669 c-210 -52 -238 -344 -39 -409 60 -20 173 -8 228 24 138
81 139 299 2 366 -50 24 -137 33 -191 19z m174 -44 c134 -69 115 -268 -31
-330 -51 -21 -143 -19 -194 4 -63 29 -89 72 -89 152 0 73 23 118 79 157 61 42
173 50 235 17z"/>
<path d="M5451 1574 c-47 -33 -66 -127 -36 -184 30 -58 82 -75 136 -43 65 38
75 169 17 223 -27 25 -84 26 -117 4z m102 -31 c53 -60 13 -183 -59 -183 -33 0
-64 45 -64 92 0 42 21 93 42 101 28 11 66 6 81 -10z"/>
<path d="M205 1658 c-3 -8 -4 -101 -3 -208 l3 -195 75 0 75 0 -2 68 c0 37 2
67 5 67 4 -1 27 -28 52 -61 74 -99 69 -97 130 -42 61 56 61 60 -14 133 l-46
44 57 59 58 58 -48 45 c-27 24 -55 44 -62 44 -7 0 -37 -29 -65 -65 -28 -36
-55 -65 -59 -65 -5 0 -7 28 -7 63 l1 62 -73 3 c-53 2 -74 -1 -77 -10z m123
-99 c-2 -55 1 -83 8 -86 7 -2 40 31 75 74 34 43 65 81 69 85 3 5 21 -4 39 -20
l33 -27 -51 -55 c-28 -30 -50 -59 -51 -63 0 -5 23 -35 51 -67 28 -32 48 -63
45 -69 -4 -6 -20 -19 -35 -31 l-29 -20 -67 90 c-37 50 -73 89 -79 87 -7 -3
-10 -34 -9 -91 l2 -86 -49 0 -50 0 0 180 0 180 50 0 50 0 -2 -81z"/>
<path d="M2375 1652 c-10 -27 -5 -90 9 -101 8 -7 31 -9 60 -5 l46 7 0 -142 c0
-104 3 -143 13 -146 26 -9 114 -13 127 -5 9 6 13 44 14 146 l1 139 55 0 55 0
0 60 0 59 -187 1 c-148 0 -189 -3 -193 -13z m355 -50 l0 -33 -45 7 c-72 10
-75 4 -75 -155 l0 -136 -43 0 -42 0 -5 145 -5 145 -55 0 c-45 0 -55 3 -58 18
-8 40 0 42 167 42 l161 0 0 -33z"/>
<path d="M2796 1655 c-3 -9 -6 -102 -6 -206 0 -189 0 -189 23 -191 74 -5 113
-4 123 4 7 5 11 73 10 205 l-1 198 -71 3 c-59 2 -73 0 -78 -13z m120 -190 c1
-174 1 -175 -22 -181 -12 -3 -33 -4 -45 -2 l-24 3 -3 178 -2 177 48 0 48 0 0
-175z"/>
<path d="M3377 1638 c-3 -18 -9 -109 -13 -202 -6 -138 -4 -170 7 -177 20 -13
107 -11 115 2 3 6 6 47 5 92 -2 78 -1 80 18 66 11 -8 66 -49 122 -92 56 -43
110 -76 118 -75 13 3 18 36 28 198 7 107 11 201 8 208 -3 9 -23 12 -67 10
l-63 -3 -3 -87 -3 -87 -120 89 c-66 50 -126 90 -133 90 -8 0 -16 -15 -19 -32z
m379 -50 c-3 -29 -8 -108 -12 -175 -4 -68 -9 -123 -12 -123 -2 0 -58 41 -124
91 -69 52 -126 88 -134 85 -11 -4 -14 -27 -14 -96 l0 -90 -36 0 -36 0 7 173
c4 94 9 174 11 176 2 2 56 -36 120 -84 65 -48 125 -90 136 -93 17 -4 18 3 18
92 l0 96 41 0 41 0 -6 -52z"/>
<path d="M3866 1655 c-3 -9 -6 -102 -6 -206 0 -144 3 -189 13 -190 64 -5 130
-3 136 6 4 5 7 98 7 205 l-1 195 -71 3 c-59 2 -73 0 -78 -13z m120 -192 c1
-121 -2 -173 -10 -174 -17 -2 -49 -2 -68 -1 -16 2 -18 18 -18 178 l0 175 48
-3 47 -3 1 -172z"/>
<path d="M4987 1664 c-4 -4 -7 -96 -7 -205 l0 -198 33 -6 c17 -3 79 -5 137 -3
l105 3 1 45 c2 69 -8 80 -71 80 l-53 0 1 143 2 142 -70 3 c-39 1 -74 0 -78 -4z
m121 -166 l-3 -143 58 -3 c31 -2 57 -6 58 -10 0 -4 2 -20 4 -35 l4 -28 -107 3
-107 3 -3 178 -2 177 51 0 51 0 -4 -142z"/>
<path d="M5785 1628 c-3 -24 -6 -117 -8 -208 l-2 -165 54 -3 c30 -2 58 1 64 7
5 5 9 47 8 92 -2 67 0 80 11 72 117 -93 233 -173 246 -171 15 3 19 30 29 198
7 107 11 201 8 208 -3 9 -23 12 -67 10 l-63 -3 -3 -88 -3 -87 -119 90 c-66 49
-126 90 -134 90 -10 0 -17 -14 -21 -42z m381 -40 c-3 -29 -8 -108 -12 -175 -4
-68 -9 -123 -13 -123 -3 0 -58 41 -121 90 -63 49 -122 89 -130 87 -12 -2 -15
-19 -17 -77 -1 -41 -2 -83 -2 -92 -1 -14 -10 -18 -37 -18 l-36 0 7 173 c4 94
9 173 10 175 2 2 59 -37 126 -87 68 -50 129 -91 136 -91 10 0 13 24 13 95 l0
95 41 0 41 0 -6 -52z"/>
<path d="M1805 631 c-27 -3 -56 -10 -62 -14 -22 -14 -15 -53 12 -65 l25 -12 0
-184 0 -184 -25 -16 c-26 -17 -34 -59 -15 -71 20 -12 205 -16 301 -7 111 10
183 39 208 83 l16 28 20 -42 c28 -58 72 -80 150 -74 34 2 75 11 91 20 28 15
32 15 48 -1 14 -14 39 -17 159 -18 78 0 152 3 165 7 28 11 30 54 2 69 -17 9
-20 21 -20 78 0 40 5 73 12 80 17 17 42 15 62 -7 29 -32 53 -15 76 55 12 36
19 71 16 79 -8 23 -94 19 -130 -5 -30 -19 -30 -19 -43 1 -20 27 -37 24 -110
-18 -47 -28 -63 -43 -63 -59 0 -14 8 -25 20 -29 18 -6 20 -15 20 -84 0 -43 -3
-80 -6 -83 -3 -3 -17 -3 -32 1 -24 6 -31 20 -62 112 -42 123 -81 173 -145 185
-69 13 -167 -24 -184 -69 -18 -48 9 -63 65 -36 50 23 67 24 87 1 25 -27 21
-32 -21 -32 -72 0 -145 -49 -165 -110 -3 -8 -6 8 -6 36 -1 64 -31 111 -86 139
l-40 20 19 38 c16 34 17 44 7 78 -15 50 -75 96 -134 103 -84 10 -183 13 -232
7z m261 -47 c50 -18 72 -40 80 -82 5 -26 1 -36 -25 -63 -37 -37 -35 -54 9 -62
36 -8 79 -39 97 -70 15 -27 17 -102 3 -128 -28 -52 -147 -76 -367 -74 -84 0
-127 11 -95 22 39 14 42 29 42 228 l0 195 -25 16 c-14 9 -25 20 -25 25 0 20
245 15 306 -7z m486 -193 c17 -19 39 -67 57 -127 33 -104 52 -134 85 -134 21
-1 21 -1 2 -15 -28 -21 -79 -18 -110 6 l-27 21 -49 -21 c-152 -65 -281 51
-158 142 18 14 50 22 94 26 37 3 69 11 71 16 6 18 -37 75 -64 86 -21 8 -37 6
-67 -5 -41 -16 -58 -14 -39 5 21 21 89 39 133 35 34 -3 51 -11 72 -35z m298 0
c0 -45 17 -46 60 -7 30 27 49 36 75 36 19 0 35 -1 35 -3 0 -15 -34 -97 -40
-97 -4 0 -13 7 -20 15 -13 16 -57 20 -76 7 -23 -15 -34 -53 -34 -120 0 -56 4
-72 20 -87 11 -10 18 -21 15 -25 -4 -6 -61 -6 -150 -1 l-20 2 20 11 c32 18 35
28 35 120 0 76 -2 89 -21 101 -19 14 -19 16 28 45 61 39 73 39 73 3z"/>
<path d="M1919 549 c-14 -28 -6 -118 12 -130 17 -11 55 -3 87 17 30 19 31 85
2 114 -28 28 -85 27 -101 -1z m79 -21 c21 -21 15 -68 -10 -77 -37 -13 -48 -3
-48 45 0 39 2 44 23 44 13 0 28 -5 35 -12z"/>
<path d="M1926 368 c-11 -16 -16 -46 -16 -103 0 -99 14 -125 67 -125 104 0
165 98 118 190 -31 59 -138 83 -169 38z m128 -39 c63 -74 10 -171 -85 -157
-22 3 -24 8 -27 73 -4 103 0 115 47 115 31 0 44 -6 65 -31z"/>
<path d="M2423 261 c-68 -42 -29 -131 57 -131 50 0 75 27 66 72 -14 70 -66 95
-123 59z m83 -36 c22 -33 15 -59 -18 -63 -57 -7 -91 43 -50 74 26 20 50 17 68
-11z"/>
<path d="M3088 598 c-73 -33 -83 -51 -48 -83 19 -17 20 -31 20 -216 0 -166 2
-200 16 -213 20 -20 34 -20 62 0 24 16 38 16 117 -5 105 -27 205 55 205 168 0
47 -40 132 -74 159 -40 31 -93 45 -147 39 l-48 -6 -3 92 c-2 72 -6 92 -18 94
-8 2 -45 -11 -82 -29z m76 -100 c1 -104 -7 -96 87 -82 138 20 234 -158 143
-266 -39 -45 -90 -55 -161 -31 -58 20 -58 20 -96 0 -21 -10 -40 -19 -42 -19
-3 0 -5 90 -5 199 0 181 -2 201 -19 222 l-20 24 52 27 c29 14 54 25 56 23 2
-2 4 -46 5 -97z"/>
<path d="M3199 371 c-29 -30 -34 -50 -29 -131 6 -104 95 -134 157 -53 22 29
27 46 28 94 0 50 -4 61 -29 88 -40 42 -86 42 -127 2z m105 -20 c63 -70 -19
-230 -85 -165 -26 26 -29 122 -5 159 20 31 65 33 90 6z"/>
<path d="M3577 446 c-67 -24 -100 -71 -71 -101 15 -14 27 -12 74 12 34 18 54
16 73 -5 25 -27 21 -32 -21 -32 -49 0 -135 -43 -152 -76 -8 -14 -14 -40 -14
-58 0 -97 112 -143 233 -97 45 17 51 17 65 2 13 -13 41 -16 147 -17 163 -1
193 4 197 35 2 15 -4 28 -17 38 -18 12 -21 25 -21 82 0 39 5 72 12 79 16 16
43 15 58 -3 7 -8 23 -15 35 -15 20 0 27 10 44 63 12 35 19 71 15 80 -9 24 -90
23 -128 -3 -30 -19 -30 -19 -43 1 -19 27 -35 24 -109 -17 -50 -28 -64 -41 -64
-59 0 -14 7 -25 20 -28 18 -5 20 -14 20 -84 0 -44 -3 -82 -6 -85 -3 -3 -17 -3
-32 1 -24 6 -31 20 -65 116 -20 60 -47 120 -60 133 -48 52 -113 65 -190 38z
m164 -54 c18 -20 39 -68 58 -130 31 -100 52 -132 87 -132 19 -1 19 -1 0 -15
-28 -21 -79 -18 -110 6 l-27 21 -49 -21 c-86 -37 -175 -21 -199 37 -27 65 32
123 131 130 35 2 67 8 71 12 12 11 -19 67 -49 86 -24 17 -48 14 -111 -12 -7
-3 -13 -1 -13 6 0 22 82 51 134 47 40 -4 55 -10 77 -35z m299 -1 c0 -45 17
-46 60 -7 30 27 49 36 75 36 19 0 35 -1 35 -3 0 -15 -34 -97 -40 -97 -4 0 -13
7 -20 15 -13 16 -57 20 -76 7 -23 -15 -34 -53 -34 -120 0 -56 4 -72 20 -87 27
-25 13 -32 -62 -29 -96 3 -96 3 -73 16 32 18 35 28 35 124 0 85 -2 92 -22 101
-21 9 -19 12 32 41 30 18 58 32 63 32 4 0 7 -13 7 -29z"/>
<path d="M3613 261 c-68 -42 -29 -131 57 -131 50 0 75 27 66 72 -14 70 -66 95
-123 59z m86 -42 c20 -37 9 -59 -32 -59 -18 0 -38 5 -45 12 -29 29 0 81 43 75
10 -1 26 -14 34 -28z"/>
<path d="M4336 444 c-47 -17 -72 -38 -79 -65 -5 -19 18 -53 31 -46 70 36 86
40 111 26 40 -23 38 -39 -6 -40 -119 -2 -198 -92 -156 -178 33 -68 125 -89
221 -53 47 18 49 18 71 0 29 -22 98 -24 129 -2 36 25 27 79 -13 79 -17 0 -26
19 -57 109 -20 60 -47 120 -60 134 -47 50 -117 64 -192 36z m165 -52 c18 -20
39 -68 58 -130 29 -93 52 -132 79 -132 17 0 15 -17 -4 -24 -31 -12 -72 -6 -98
15 l-27 21 -49 -21 c-152 -65 -281 51 -158 142 18 14 50 22 94 26 37 3 69 11
71 16 5 18 -36 75 -62 85 -27 10 -82 3 -91 -11 -7 -12 -24 -11 -24 1 0 6 19
20 43 31 63 29 132 21 168 -19z"/>
<path d="M4373 261 c-68 -42 -29 -131 57 -131 50 0 75 27 66 72 -14 70 -66 95
-123 59z m83 -36 c22 -33 15 -59 -18 -63 -57 -7 -91 43 -50 74 26 20 50 17 68
-11z"/>
</g>
</svg>
