<?xml version="1.0" encoding="UTF-8" standalone="no"?>
<!-- Generator: Adobe Illustrator 23.0.1, SVG Export Plug-In . SVG Version: 6.00 Build 0)  -->

<svg
   xmlns:dc="http://purl.org/dc/elements/1.1/"
   xmlns:cc="http://creativecommons.org/ns#"
   xmlns:rdf="http://www.w3.org/1999/02/22-rdf-syntax-ns#"
   xmlns:svg="http://www.w3.org/2000/svg"
   xmlns="http://www.w3.org/2000/svg"
   xmlns:sodipodi="http://sodipodi.sourceforge.net/DTD/sodipodi-0.dtd"
   xmlns:inkscape="http://www.inkscape.org/namespaces/inkscape"
   version="1.1"
   id="Layer_1"
   x="0px"
   y="0px"
   viewBox="0 0 93.9 80.2"
   style="enable-background:new 0 0 93.9 80.2;"
   xml:space="preserve"
   sodipodi:docname="barbara simbol-01.svg"
   inkscape:version="0.92+devel (b071ae7561, 2017-11-25, custom)"><metadata
   id="metadata887"><rdf:RDF><cc:Work
       rdf:about=""><dc:format>image/svg+xml</dc:format><dc:type
         rdf:resource="http://purl.org/dc/dcmitype/StillImage" /></cc:Work></rdf:RDF></metadata><defs
   id="defs885" /><sodipodi:namedview
   pagecolor="#ffffff"
   bordercolor="#666666"
   inkscape:document-rotation="0"
   borderopacity="1"
   objecttolerance="10"
   gridtolerance="10"
   guidetolerance="10"
   inkscape:pageopacity="0"
   inkscape:pageshadow="2"
   inkscape:window-width="1920"
   inkscape:window-height="1001"
   id="namedview883"
   showgrid="false"
   inkscape:zoom="8.1795514"
   inkscape:cx="40.470428"
   inkscape:cy="38.198946"
   inkscape:window-x="-9"
   inkscape:window-y="-9"
   inkscape:window-maximized="1"
   inkscape:current-layer="Layer_1" />
<style
   type="text/css"
   id="style862">
	.st0{fill:none;stroke:#000000;stroke-linejoin:round;stroke-miterlimit:10;}
</style>
<g
   id="g880"
   transform="matrix(0.70040924,0,0,0.66896936,17.09102,-1.1685044)"
   style="fill:#000000;fill-opacity:0">
	<path
   class="st0"
   d="M 36.5,10.2 C 33.3,5.1 20,7 20,7 c 0,0 8.5,12.8 20.2,11"
   id="path864"
   inkscape:connector-curvature="0"
   style="fill:#000000;fill-opacity:0" />
	<path
   class="st0"
   d="m 24.8,12.4 c -5,-0.7 -8.1,2.6 -8.1,2.6 0,0 10,8.2 23.5,3"
   id="path866"
   inkscape:connector-curvature="0"
   style="fill:#000000;fill-opacity:0" />
	<path
   class="st0"
   d="M 46.4,16 C 51,19.9 56.9,18.1 56.9,12.4 56.9,7.3 48.6,5.6 46.8,4.1 46.6,3.9 46.3,3.9 46.1,4.1 44.3,5.6 36,7.2 36,12.4 c -0.1,5.7 5.8,7.4 10.4,3.6 z"
   id="path868"
   inkscape:connector-curvature="0"
   style="fill:#000000;fill-opacity:0" />
	<path
   class="st0"
   d="M 56.3,10.2 C 59.5,5.1 72.8,7 72.8,7 c 0,0 -8.5,12.8 -20.2,11"
   id="path870"
   inkscape:connector-curvature="0"
   style="fill:#000000;fill-opacity:0" />
	<path
   class="st0"
   d="m 68,12.4 c 5,-0.7 8.1,2.6 8.1,2.6 0,0 -10,8.2 -23.5,3"
   id="path872"
   inkscape:connector-curvature="0"
   style="fill:#000000;fill-opacity:0" />
	<path
   class="st0"
   d="m 78,43.4 c 8,0 7.2,-11.6 3,-14.4 -4.8,-3.1 -17.4,-1.3 -33.1,0.2 -15.7,1.5 -39.5,1.1 -39.5,-6.4 0,-5.7 5.1,-5.8 5.1,-5.8 0,0 3.7,6.8 22.1,6.9 18.4,0.1 32.8,-1.6 41.8,-1.6 9,0 13.4,5.4 13.4,12.7 0,7.3 -5.4,12.6 -12.9,12.6 -7.5,0 -10.1,-8.3 -10.1,-9.9 l -12,13.1 c 0,0 8.7,-0.8 16.4,-2.1 7.6,-1.3 17.6,2.7 17.6,12.4 0,9.7 -7,15.4 -16.9,15.4 -9.9,0 -16.2,-3.6 -25.9,-14 0,0 -9.5,13.4 -21.8,14 C 12.6,76.7 3.3,71 3.3,56.1 c 0,-14.9 9.2,-22.7 19.6,-22.7 13.4,0 15.5,11.3 25.1,22 l 1.3,-1.3 c 0,0 -7.7,-2.3 -7.7,-12.1 0,-5.5 4.4,-6 4.4,-6 0,0 1.6,0.9 2.1,3.4 0.2,0.9 -2.6,2.1 -2.6,5.6 0,3.5 3.7,5.5 6,5.3 0,0 17.8,-20.3 20,-20.3 2,0 0.1,2.9 0.1,6.8 0,3.9 2.3,6.6 6.4,6.6 z"
   id="path874"
   inkscape:connector-curvature="0"
   style="fill:#000000;fill-opacity:0" />
	<path
   class="st0"
   d="m 52.4,55 -2.3,2.8 c 0,0 12.5,13.6 21.1,13.6 8.6,0 12.3,-4.2 12.3,-9.3 C 83.5,57 81.2,52 74,53 65.2,54.2 52.4,55 52.4,55 Z"
   id="path876"
   inkscape:connector-curvature="0"
   style="fill:#000000;fill-opacity:0" />
	<path
   class="st0"
   d="m 44.4,58.9 c 0,0 -9,10.6 -17.7,11.1 C 17.9,70.6 9.8,68 9.8,55 9.8,42 23,35.3 30.4,41 c 6.7,5.3 9,11.7 14,17.9 z"
   id="path878"
   inkscape:connector-curvature="0"
   style="fill:#000000;fill-opacity:0" />
</g>

<text
   xml:space="preserve"
   style="font-style:normal;font-weight:normal;font-size:45.64368057px;font-family:sans-serif;fill:#000000;fill-opacity:1;stroke:none;stroke-width:0.11338583;stroke-miterlimit:4;stroke-dasharray:none"
   x="20.229856"
   y="53.566883"
   id="text833"
   transform="scale(0.96335468,1.0380393)"><tspan
     sodipodi:role="line"
     id="tspan831"
     x="20.229856"
     y="53.566883"
     style="font-style:normal;font-variant:normal;font-weight:normal;font-stretch:normal;font-size:6.32291317px;font-family:'Lithos Pro';-inkscape-font-specification:'Lithos Pro';stroke:#000000;stroke-width:0.11338583;stroke-miterlimit:4;stroke-dasharray:none;stroke-opacity:1">kozmetiÄni  salon</tspan></text>

<text
   xml:space="preserve"
   style="font-style:normal;font-weight:normal;font-size:56.12380981px;font-family:sans-serif;fill:#000000;fill-opacity:1;stroke:none;stroke-width:0.11338583;stroke-miterlimit:4;stroke-dasharray:none"
   x="20.85759"
   y="64.64521"
   id="text837"
   transform="scale(0.93322818,1.0715493)"><tspan
     sodipodi:role="line"
     id="tspan835"
     x="20.85759"
     y="64.64521"
     style="font-style:normal;font-variant:normal;font-weight:normal;font-stretch:normal;font-size:16.83714294px;font-family:Windsor;-inkscape-font-specification:Windsor;stroke:#f9f9f9;stroke-width:0.11338583;stroke-miterlimit:4;stroke-dasharray:none;stroke-opacity:0">Barbara</tspan></text>

</svg>