<?xml version="1.0" encoding="utf-8"?>
<!-- Generator: Adobe Illustrator 23.0.1, SVG Export Plug-In . SVG Version: 6.00 Build 0)  -->
<svg version="1.1" id="Layer_1" xmlns="http://www.w3.org/2000/svg" xmlns:xlink="http://www.w3.org/1999/xlink" x="0px" y="0px"
	 viewBox="0 0 93.9 80.2" style="enable-background:new 0 0 93.9 80.2;" xml:space="preserve">
<style type="text/css">
	.st0{fill:none;stroke:#000000;stroke-linejoin:round;stroke-miterlimit:10;}
</style>
<g>
	<path class="st0" d="M36.5,10.2C33.3,5.1,20,7,20,7S28.5,19.8,40.2,18"/>
	<path class="st0" d="M24.8,12.4c-5-0.7-8.1,2.6-8.1,2.6s10,8.2,23.5,3"/>
	<path class="st0" d="M46.4,16c4.6,3.9,10.5,2.1,10.5-3.6c0-5.1-8.3-6.8-10.1-8.3c-0.2-0.2-0.5-0.2-0.7,0
		c-1.8,1.5-10.1,3.1-10.1,8.3C35.9,18.1,41.8,19.8,46.4,16z"/>
	<path class="st0" d="M56.3,10.2C59.5,5.1,72.8,7,72.8,7S64.3,19.8,52.6,18"/>
	<path class="st0" d="M68,12.4c5-0.7,8.1,2.6,8.1,2.6s-10,8.2-23.5,3"/>
	<path class="st0" d="M78,43.4c8,0,7.2-11.6,3-14.4c-4.8-3.1-17.4-1.3-33.1,0.2c-15.7,1.5-39.5,1.1-39.5-6.4c0-5.7,5.1-5.8,5.1-5.8
		s3.7,6.8,22.1,6.9s32.8-1.6,41.8-1.6s13.4,5.4,13.4,12.7s-5.4,12.6-12.9,12.6s-10.1-8.3-10.1-9.9l-12,13.1c0,0,8.7-0.8,16.4-2.1
		c7.6-1.3,17.6,2.7,17.6,12.4s-7,15.4-16.9,15.4s-16.2-3.6-25.9-14c0,0-9.5,13.4-21.8,14C12.6,76.7,3.3,71,3.3,56.1
		s9.2-22.7,19.6-22.7c13.4,0,15.5,11.3,25.1,22l1.3-1.3c0,0-7.7-2.3-7.7-12.1c0-5.5,4.4-6,4.4-6s1.6,0.9,2.1,3.4
		c0.2,0.9-2.6,2.1-2.6,5.6c0,3.5,3.7,5.5,6,5.3c0,0,17.8-20.3,20-20.3c2,0,0.1,2.9,0.1,6.8S73.9,43.4,78,43.4z"/>
	<path class="st0" d="M52.4,55l-2.3,2.8c0,0,12.5,13.6,21.1,13.6s12.3-4.2,12.3-9.3S81.2,52,74,53C65.2,54.2,52.4,55,52.4,55z"/>
	<path class="st0" d="M44.4,58.9c0,0-9,10.6-17.7,11.1c-8.8,0.6-16.9-2-16.9-15s13.2-19.7,20.6-14C37.1,46.3,39.4,52.7,44.4,58.9z"
		/>
</g>
</svg>
