<?xml version="1.0" standalone="no"?>
<!DOCTYPE svg PUBLIC "-//W3C//DTD SVG 20010904//EN"
 "http://www.w3.org/TR/2001/REC-SVG-20010904/DTD/svg10.dtd">
<svg version="1.0" xmlns="http://www.w3.org/2000/svg"
 width="621.000000pt" height="641.000000pt" viewBox="0 0 621.000000 641.000000"
 preserveAspectRatio="xMidYMid meet">

<g transform="translate(0.000000,641.000000) scale(0.100000,-0.100000)"
fill="#000000" stroke="none">
<path d="M2975 6352 c-22 -11 -57 -31 -79 -45 -54 -38 -292 -147 -318 -147 -4
0 -35 -13 -70 -29 -145 -67 -174 -72 -267 -45 -99 28 -147 39 -296 65 -92 17
-525 17 -620 0 -194 -34 -225 -48 -225 -99 0 -37 25 -91 75 -162 44 -63 51
-99 26 -132 -11 -14 -33 -28 -48 -31 -61 -12 -199 -122 -228 -181 -8 -16 -15
-48 -15 -71 0 -36 6 -48 43 -86 62 -66 95 -89 257 -176 14 -7 36 -22 50 -34
l25 -20 -75 6 c-113 10 -152 26 -410 169 -75 41 -115 45 -175 16 -54 -26 -150
-123 -189 -191 -28 -49 -31 -62 -30 -139 0 -76 3 -90 27 -128 62 -96 234 -172
457 -203 177 -25 207 -29 250 -38 25 -5 63 -14 85 -20 126 -35 789 -72 1385
-78 679 -7 1039 11 1370 68 154 26 381 71 455 89 316 76 325 78 494 86 233 13
379 -33 502 -155 70 -71 90 -105 120 -210 44 -153 34 -318 -27 -440 -62 -124
-156 -182 -306 -189 -122 -6 -158 9 -245 103 -59 63 -92 113 -124 190 -33 80
-38 209 -13 379 23 160 10 214 -57 229 -19 5 -39 -3 -80 -30 -30 -20 -56 -39
-59 -43 -3 -4 -12 -11 -22 -16 -9 -5 -34 -25 -55 -44 -21 -19 -49 -43 -63 -52
-14 -9 -43 -34 -65 -55 -22 -21 -54 -48 -70 -61 -49 -39 -253 -229 -365 -341
-134 -134 -184 -189 -293 -320 -48 -58 -102 -124 -121 -146 -19 -22 -57 -69
-85 -105 -27 -36 -66 -84 -86 -106 l-35 -42 -44 13 c-82 25 -230 109 -267 152
-44 49 -50 196 -14 293 64 169 64 171 33 238 -49 106 -123 182 -178 182 -27 0
-90 -33 -111 -56 -24 -29 -59 -93 -59 -110 0 -8 -4 -22 -9 -32 -26 -50 -33
-105 -29 -260 3 -146 1 -162 -14 -162 -18 0 -43 27 -238 266 -95 116 -239 255
-325 314 -85 58 -120 79 -200 120 -200 104 -276 120 -556 120 -196 0 -279 -8
-321 -31 -10 -5 -23 -9 -28 -9 -15 0 -312 -149 -331 -166 -8 -8 -19 -14 -23
-14 -22 0 -163 -110 -240 -186 -93 -93 -176 -208 -240 -334 -22 -41 -42 -79
-46 -85 -12 -15 -42 -105 -52 -155 -27 -128 -31 -474 -7 -635 48 -330 159
-570 352 -766 64 -66 190 -169 205 -169 6 0 12 -4 14 -8 3 -8 99 -71 173 -114
80 -47 254 -132 285 -140 224 -58 502 -67 800 -27 158 21 370 83 418 122 7 5
32 20 55 32 132 67 358 269 474 425 38 52 89 112 113 134 36 32 47 37 73 32
42 -9 126 -72 302 -231 37 -33 75 -64 84 -69 9 -5 39 -31 66 -57 63 -60 103
-90 243 -185 102 -69 310 -174 345 -174 7 0 17 -4 23 -9 9 -8 135 -50 259 -86
33 -10 64 -21 69 -26 6 -5 194 -9 418 -9 356 0 408 2 408 15 0 10 11 15 35 15
24 0 35 5 35 15 0 8 17 22 38 31 20 10 66 39 102 65 78 57 322 304 368 373 65
96 116 213 153 351 19 67 19 396 0 485 -31 155 -83 252 -193 363 -49 48 -94
87 -102 87 -8 0 -16 4 -18 9 -4 11 -137 101 -149 101 -5 0 -9 11 -9 24 0 25
32 50 134 105 115 62 246 212 314 361 97 208 107 253 99 429 -9 197 -40 339
-99 454 -70 138 -246 305 -390 371 -104 48 -376 126 -436 126 -11 0 -26 8 -36
18 -15 18 -14 23 29 86 50 76 55 107 26 164 -22 43 -111 127 -164 155 -12 7
-46 28 -75 47 -48 31 -53 38 -48 63 3 16 21 52 41 81 45 67 65 117 65 158 0
75 -52 100 -240 117 -254 23 -531 9 -787 -40 -210 -40 -248 -39 -351 11 -45
22 -86 40 -90 40 -12 0 -179 67 -232 93 -25 12 -77 42 -117 66 -86 51 -132 59
-188 33z m123 -51 c51 -43 160 -97 262 -131 36 -12 74 -25 85 -30 11 -5 49
-21 85 -36 36 -15 93 -47 128 -71 67 -46 91 -51 133 -29 14 7 66 23 115 35
264 65 346 74 618 68 234 -5 396 -21 408 -40 14 -23 -28 -87 -136 -206 -100
-110 -100 -127 4 -151 130 -30 320 -161 320 -220 0 -20 -48 -73 -100 -111 -94
-69 -300 -159 -364 -159 -18 0 -55 -9 -82 -19 -47 -18 -99 -28 -269 -51 -151
-21 -457 -24 -615 -6 -79 9 -158 21 -175 26 -289 93 -435 151 -435 171 0 17
-59 9 -97 -12 -183 -103 -316 -141 -632 -179 -108 -13 -449 -13 -566 0 -49 5
-135 15 -190 21 -88 9 -122 19 -285 85 -157 64 -196 84 -260 135 -41 33 -79
70 -84 83 -22 57 97 160 254 220 119 45 129 50 135 65 3 9 -12 33 -39 60 -40
42 -112 147 -145 213 -22 42 -9 55 67 68 291 49 824 11 998 -71 89 -42 115
-39 262 32 70 34 138 65 152 69 88 28 197 73 215 89 11 11 36 26 55 34 20 8
51 31 70 51 19 20 40 36 48 36 7 0 34 -18 60 -39z m-2355 -993 c12 -6 45 -28
72 -48 60 -45 108 -70 197 -104 78 -30 236 -66 255 -59 7 3 19 0 26 -6 8 -6
45 -15 83 -21 38 -6 96 -15 129 -20 487 -80 927 -107 1555 -96 475 8 704 26
1063 86 205 35 234 41 422 85 281 67 348 77 529 79 102 1 161 -3 177 -11 13
-7 72 -28 130 -47 192 -63 254 -99 382 -225 118 -115 193 -246 217 -376 6 -39
16 -80 21 -93 12 -32 11 -142 -2 -199 -46 -200 -98 -336 -162 -426 -42 -58
-189 -210 -265 -272 l-33 -27 -215 -5 c-213 -5 -217 -4 -297 22 -82 27 -159
63 -165 78 -2 4 -8 7 -14 7 -33 0 -218 162 -269 236 -16 23 -49 82 -74 130
-55 106 -61 114 -88 114 -25 0 -326 -300 -491 -490 -60 -69 -144 -163 -185
-209 -42 -46 -76 -89 -76 -95 0 -32 271 7 675 98 164 37 409 66 553 66 120 0
314 -30 429 -66 206 -65 472 -264 542 -408 57 -117 76 -209 76 -369 0 -232
-64 -446 -180 -602 -101 -136 -345 -361 -442 -408 -133 -64 -281 -88 -533 -88
-267 0 -329 11 -580 105 -38 14 -78 26 -88 26 -9 0 -57 18 -105 41 -48 23
-114 54 -148 70 -34 16 -67 35 -74 44 -7 8 -18 15 -25 15 -6 0 -20 10 -31 21
-10 12 -71 65 -134 118 -143 119 -289 250 -444 398 -65 62 -124 113 -130 113
-15 0 -78 -72 -233 -266 -129 -161 -174 -204 -318 -307 -207 -147 -332 -205
-535 -248 -96 -20 -204 -29 -430 -35 -222 -6 -238 -5 -280 14 -25 11 -76 30
-115 42 -110 34 -209 85 -358 186 -76 52 -144 94 -151 94 -17 0 -156 147 -156
164 0 7 -28 42 -62 78 -66 69 -113 151 -146 253 -11 33 -30 87 -42 120 -58
159 -75 278 -75 540 0 226 5 266 47 388 43 127 184 351 291 464 131 137 437
317 637 374 63 17 461 15 555 -4 116 -23 328 -123 420 -197 155 -125 195 -164
299 -293 62 -78 129 -160 150 -182 20 -22 53 -65 73 -95 41 -62 72 -99 332
-393 101 -115 195 -214 209 -220 20 -9 26 -8 38 8 32 44 15 74 -132 226 -141
148 -210 257 -264 419 -28 87 -39 254 -18 295 8 17 15 45 17 64 4 67 99 211
140 211 20 0 53 -45 107 -146 l33 -60 -32 -55 c-65 -110 -77 -149 -77 -256 0
-107 15 -156 66 -208 77 -80 276 -174 376 -178 l52 -2 32 57 c30 52 156 223
201 273 10 11 41 47 68 80 113 135 171 199 290 319 129 131 324 312 460 427
22 19 46 40 53 47 27 25 178 139 199 151 12 6 29 11 38 11 19 0 17 -28 -5
-105 -28 -98 -33 -127 -37 -238 -5 -123 -3 -132 43 -235 52 -115 169 -261 236
-296 47 -25 141 -35 224 -25 145 18 224 49 280 112 74 81 93 166 93 402 0 248
-20 327 -109 415 -59 60 -159 127 -230 155 -62 24 -207 45 -316 45 -132 0
-397 -42 -529 -84 -81 -26 -177 -46 -223 -46 -17 0 -69 -9 -114 -19 -84 -19
-217 -40 -383 -61 -49 -6 -124 -16 -165 -23 -101 -16 -1370 -15 -1560 1 -74 6
-220 17 -325 23 -200 11 -373 30 -515 55 -47 8 -101 17 -120 20 -19 3 -53 9
-75 14 -22 5 -69 14 -105 21 -189 34 -303 81 -365 151 -31 33 -35 45 -35 91 0
95 62 187 175 259 64 40 84 45 118 26z m2484 -127 c45 -17 129 -42 185 -56
138 -35 178 -45 208 -53 33 -10 38 -38 8 -45 -152 -37 -1437 -31 -1475 6 -18
19 38 29 247 47 186 15 269 32 420 86 58 20 123 41 145 45 69 13 174 1 262
-30z m1194 -1233 c41 -54 109 -128 239 -261 69 -70 125 -135 125 -145 0 -22 0
-22 -332 -63 -49 -6 -106 -14 -128 -19 -22 -5 -74 -14 -115 -21 -41 -6 -129
-24 -195 -40 -142 -34 -145 -34 -145 -10 0 40 51 107 210 276 47 49 132 141
189 203 57 61 109 112 116 112 7 0 23 -14 36 -32z"/>
<path d="M3020 6153 c-8 -3 -26 -14 -40 -23 -74 -51 -147 -81 -340 -141 -19
-6 -52 -22 -73 -35 -21 -14 -43 -24 -50 -23 -33 4 -46 -4 -65 -43 -31 -65 -42
-127 -42 -236 0 -155 26 -210 118 -245 75 -30 254 -18 350 23 12 6 34 15 50
21 15 6 35 15 44 20 30 15 92 10 135 -11 132 -64 364 -87 448 -45 113 56 157
262 89 412 -21 47 -85 96 -193 149 -116 56 -116 57 -215 89 -93 31 -125 46
-150 74 -19 21 -37 25 -66 14z m179 -158 c209 -70 342 -150 390 -235 16 -29
26 -143 17 -193 -4 -20 -23 -53 -44 -76 -31 -34 -47 -43 -92 -51 -70 -13 -172
2 -294 42 -127 42 -221 37 -336 -16 -37 -17 -65 -21 -155 -21 -178 0 -199 23
-200 210 0 99 3 125 18 146 24 36 83 76 148 100 30 11 63 23 74 28 11 4 72 25
136 45 63 21 122 42 130 47 28 18 103 8 208 -26z"/>
<path d="M1410 6007 c-61 -21 -52 -38 87 -176 70 -70 148 -143 172 -162 24
-18 49 -39 56 -46 46 -44 288 -177 406 -223 30 -12 68 -27 84 -34 83 -35 135
-45 135 -24 0 6 -15 43 -34 82 -18 39 -40 87 -47 106 -19 49 -16 191 5 263 14
44 15 61 6 72 -11 13 -117 49 -234 79 -88 23 -248 45 -403 56 -76 5 -151 11
-168 14 -16 3 -46 0 -65 -7z m480 -106 c191 -25 277 -61 296 -121 6 -19 14
-103 17 -187 6 -166 4 -173 -51 -152 -82 33 -188 90 -272 147 -230 156 -375
289 -355 323 8 13 245 6 365 -10z"/>
<path d="M4325 5989 c-249 -18 -469 -86 -495 -155 -5 -13 -12 -79 -16 -146
-10 -187 -40 -284 -102 -323 -43 -28 -42 -55 2 -55 45 0 98 22 361 151 266
130 339 180 512 354 101 103 134 147 120 162 -9 8 -139 22 -202 21 -33 0 -114
-5 -180 -9z m225 -84 c21 -25 3 -58 -67 -126 -90 -86 -221 -174 -368 -247
-141 -70 -187 -86 -216 -77 -21 7 -22 10 -15 143 11 206 29 227 226 275 160
39 196 44 316 46 88 1 114 -2 124 -14z"/>
<path d="M1390 5609 c-81 -9 -156 -34 -193 -65 -16 -13 -34 -24 -42 -24 -10 0
-25 -20 -25 -35 0 -11 174 -83 305 -127 57 -19 76 -24 178 -48 114 -26 482
-57 505 -42 9 6 -11 17 -60 36 -40 15 -101 41 -136 57 -35 16 -65 29 -67 29
-10 0 -165 96 -200 125 -111 90 -155 105 -265 94z m132 -99 c12 -11 26 -20 31
-20 9 0 97 -68 109 -85 4 -5 8 -18 8 -27 0 -24 -54 -24 -145 1 -38 11 -81 23
-95 26 -100 27 -156 90 -97 110 82 29 155 27 189 -5z"/>
<path d="M4575 5598 c-11 -7 -57 -38 -103 -68 -187 -124 -331 -200 -444 -234
-100 -31 -73 -40 98 -33 226 10 406 41 559 97 33 12 83 29 110 37 82 25 113
41 130 67 23 35 8 58 -64 90 -100 45 -248 67 -286 44z m196 -88 c71 -39 -60
-110 -266 -145 -44 -7 -84 -10 -88 -6 -11 11 56 76 110 108 82 48 197 68 244
43z"/>
<path d="M1215 4046 c-85 -15 -96 -19 -210 -64 -139 -55 -238 -112 -292 -168
-13 -13 -23 -27 -23 -33 0 -5 -16 -18 -35 -30 -47 -28 -149 -192 -195 -316 -4
-11 -12 -31 -18 -45 -28 -64 -62 -184 -62 -219 0 -21 6 -69 14 -107 8 -38 19
-105 26 -149 12 -81 26 -143 40 -180 4 -11 14 -36 21 -55 15 -43 87 -190 118
-244 20 -36 56 -83 116 -154 64 -77 206 -163 390 -239 187 -77 315 -97 600
-96 218 0 221 0 311 31 50 17 110 35 133 42 22 6 56 23 74 39 17 15 48 36 67
45 71 33 531 456 565 519 28 53 15 73 -194 297 -64 68 -143 154 -176 189 -33
36 -69 75 -80 86 -24 26 -137 157 -266 310 -118 140 -249 275 -266 275 -7 0
-46 31 -85 68 -82 77 -115 98 -208 137 -36 15 -85 36 -110 48 -55 26 -156 31
-255 13z m213 -85 c15 -10 52 -26 82 -34 53 -16 152 -70 158 -88 2 -5 9 -9 15
-9 24 -2 247 -211 366 -346 222 -251 236 -267 246 -285 6 -9 71 -80 145 -157
74 -77 142 -149 150 -160 8 -11 42 -49 75 -86 94 -103 115 -132 115 -158 0
-18 -32 -55 -123 -144 -130 -125 -225 -210 -310 -277 -29 -22 -54 -43 -57 -46
-23 -27 -241 -141 -268 -141 -10 0 -23 -5 -30 -12 -8 -8 -74 -13 -199 -16
-406 -9 -666 51 -893 206 -192 132 -352 405 -405 691 -17 95 -20 304 -5 401
14 88 74 207 155 308 144 178 303 276 585 360 62 18 168 14 198 -7z"/>
<path d="M4545 3070 c-27 -10 -59 -19 -70 -19 -11 -1 -81 -14 -155 -31 -196
-43 -331 -58 -634 -70 -292 -12 -306 -15 -349 -72 -49 -67 -50 -65 109 -235
216 -231 496 -497 554 -526 65 -33 94 -49 180 -102 104 -64 119 -72 237 -130
172 -85 245 -105 383 -105 305 1 513 89 662 280 54 70 110 199 119 274 9 86 2
294 -13 356 -40 166 -211 312 -423 362 -183 42 -505 52 -600 18z m430 -75
c171 -32 259 -65 370 -139 89 -60 139 -125 164 -216 13 -47 11 -288 -3 -345
-22 -89 -108 -231 -177 -293 -76 -68 -132 -98 -255 -136 -158 -50 -317 -57
-434 -20 -72 23 -374 174 -453 227 -34 22 -80 52 -102 66 -22 14 -42 29 -45
32 -3 4 -21 17 -41 31 -92 62 -375 327 -390 366 -5 12 -15 22 -24 22 -8 0 -15
6 -15 14 0 8 -15 25 -32 37 -62 43 -122 131 -116 171 4 30 34 36 263 47 105 6
244 17 310 26 111 14 148 20 305 44 92 15 243 49 285 64 55 20 285 21 390 2z"/>
<path d="M3066 1433 c-8 -19 -5 -22 44 -50 l35 -20 41 26 c34 22 40 30 32 44
-11 21 -26 22 -49 1 -17 -15 -20 -15 -43 0 -32 21 -52 20 -60 -1z"/>
<path d="M4570 1164 c-61 -102 -110 -187 -108 -188 12 -9 97 -56 101 -56 2 0
12 18 22 39 l17 40 86 3 85 3 20 -42 c12 -24 23 -43 26 -43 4 0 30 15 58 33
l53 33 -24 34 c-13 19 -67 101 -120 183 -52 81 -98 147 -100 147 -3 0 -55 -84
-116 -186z m140 -34 c11 -21 20 -42 20 -45 0 -3 -20 -5 -45 -5 -25 0 -45 2
-45 5 0 10 40 85 45 85 3 0 14 -18 25 -40z"/>
<path d="M5 1135 l0 -205 62 0 62 0 3 91 3 91 68 -86 c38 -47 73 -86 78 -86
14 0 89 63 89 75 0 5 -26 35 -57 67 l-57 58 59 60 c34 34 55 63 50 67 -6 5
-26 23 -46 41 l-36 33 -77 -91 -76 -92 0 91 0 91 -62 0 -63 0 0 -205z"/>
<path d="M572 1326 c-97 -32 -151 -105 -152 -205 0 -70 30 -124 90 -159 39
-23 56 -27 125 -27 112 0 175 36 220 124 24 47 18 159 -11 198 -50 67 -177
100 -272 69z m112 -80 c79 -33 73 -187 -8 -221 -39 -17 -70 -10 -99 23 -46 51
-23 171 37 198 39 16 31 16 70 0z"/>
<path d="M940 1289 l0 -49 80 0 c44 0 80 -2 80 -5 0 -3 -41 -68 -90 -146 -50
-78 -89 -143 -88 -145 2 -1 81 -6 176 -10 l172 -7 0 52 0 51 -81 0 c-61 0 -80
3 -76 13 3 6 41 70 86 142 44 71 77 133 73 136 -4 4 -80 9 -169 12 l-163 6 0
-50z"/>
<path d="M1450 1294 c-42 -95 -130 -321 -130 -331 0 -11 70 -43 94 -43 7 0 18
17 24 38 6 20 18 63 27 95 l17 58 52 -82 c29 -46 57 -84 62 -86 5 -1 34 35 64
82 30 46 58 81 61 77 4 -4 21 -46 40 -94 18 -49 37 -88 43 -87 6 0 32 10 58
22 l48 22 -71 160 c-39 88 -77 173 -84 189 l-13 30 -34 -55 c-19 -30 -47 -75
-62 -101 -16 -27 -32 -50 -36 -53 -5 -3 -38 43 -74 102 l-65 107 -21 -50z"/>
<path d="M2063 1333 l-83 -4 0 -193 0 -193 83 -6 c45 -4 101 -7 125 -7 l42 0
0 45 0 44 -62 3 c-63 3 -63 3 -66 36 l-3 32 53 0 53 0 -3 46 -4 45 -47 -3 -46
-3 -3 38 -3 37 60 0 61 0 0 45 0 45 -37 -2 c-21 -1 -75 -4 -120 -5z"/>
<path d="M3114 1316 c-102 -38 -174 -103 -194 -175 -13 -49 -5 -85 28 -130 35
-47 99 -72 199 -79 l83 -5 0 41 c0 56 -7 70 -34 65 -32 -7 -104 15 -127 38
-10 10 -19 31 -19 45 0 37 57 91 114 106 29 8 46 18 46 28 0 25 -20 90 -28 89
-4 0 -34 -10 -68 -23z"/>
<path d="M3316 1247 c-20 -312 -20 -307 0 -307 11 0 36 -3 56 -6 l37 -6 3 101
3 102 135 -101 135 -100 6 48 c3 26 10 116 14 200 l7 152 -56 0 -56 0 0 -95
c0 -52 -2 -95 -4 -95 -2 0 -60 42 -128 93 -68 51 -128 96 -134 100 -8 5 -13
-21 -18 -86z"/>
<path d="M4327 1329 c-88 -21 -157 -76 -157 -126 0 -39 17 -60 75 -98 30 -19
55 -39 55 -45 0 -15 -34 -30 -75 -32 l-37 -3 5 -43 c2 -24 7 -46 11 -49 3 -3
27 0 53 7 149 41 214 131 146 202 -15 15 -31 28 -36 28 -5 0 -22 10 -39 21
-26 19 -28 23 -15 36 8 8 33 17 56 20 32 4 40 9 37 22 -2 9 -7 28 -10 44 -7
29 -11 30 -69 16z"/>
<path d="M5442 1326 c-96 -31 -152 -107 -152 -205 0 -70 31 -125 90 -159 61
-36 183 -39 246 -5 82 44 119 114 112 212 -5 70 -33 113 -91 143 -52 26 -147
33 -205 14z m112 -80 c79 -33 73 -187 -8 -221 -39 -17 -70 -10 -99 23 -46 50
-24 166 36 196 39 19 31 19 71 2z"/>
<path d="M5839 1338 c-2 -4 -26 -393 -25 -394 1 -1 25 -4 54 -8 l52 -7 0 101
c0 55 3 100 6 100 4 0 66 -45 139 -100 74 -55 136 -100 139 -100 3 0 6 90 6
200 l0 200 -45 0 -45 0 0 -95 c0 -52 -3 -95 -7 -95 -3 0 -66 45 -140 100 -73
55 -134 99 -134 98z"/>
<path d="M2270 1277 l0 -50 60 7 60 7 0 -151 0 -150 65 0 65 0 0 150 0 151 60
-7 60 -7 0 50 0 50 -185 0 -185 0 0 -50z"/>
<path d="M2700 1135 l0 -195 65 0 65 0 0 195 0 195 -65 0 -65 0 0 -195z"/>
<path d="M3820 1135 l0 -195 63 0 62 0 0 195 0 195 -62 0 -63 0 0 -195z"/>
<path d="M4990 1136 l0 -193 92 -7 c50 -3 106 -6 125 -6 l33 0 0 50 0 50 -60
0 -60 0 0 150 0 150 -65 0 -65 0 0 -194z"/>
<path d="M1232 721 c-68 -12 -80 -45 -25 -70 17 -8 34 -23 37 -35 10 -36 6
-463 -4 -491 -5 -14 -20 -29 -33 -34 -32 -12 -40 -36 -20 -57 15 -14 43 -16
247 -11 262 5 311 14 376 73 57 51 71 148 32 220 -21 39 -92 94 -136 106 l-44
12 33 30 c40 38 52 91 31 140 -17 40 -82 91 -135 106 -47 13 -304 21 -359 11z
m300 -99 c9 -9 20 -33 23 -53 5 -29 2 -41 -17 -62 -25 -29 -74 -43 -96 -29 -8
5 -16 36 -19 69 -5 53 -3 63 17 83 25 25 62 21 92 -8z m65 -254 c76 -69 67
-196 -17 -240 -21 -11 -56 -18 -88 -18 -48 0 -53 2 -63 28 -11 29 -9 236 3
247 13 14 73 21 106 14 19 -4 45 -18 59 -31z"/>
<path d="M2978 679 c-43 -21 -78 -45 -78 -52 0 -8 11 -23 25 -35 l25 -22 0
-263 c0 -296 3 -312 56 -285 16 8 39 21 51 28 20 13 30 12 91 -9 80 -28 158
-26 200 6 106 79 126 215 48 331 -58 86 -174 124 -263 87 -19 -8 -37 -15 -39
-15 -2 0 -4 61 -4 135 0 159 5 155 -112 94z m281 -285 c13 -9 29 -32 37 -50
50 -121 -47 -268 -151 -228 -23 9 -42 52 -50 115 -13 108 28 179 104 179 20 0
47 -7 60 -16z"/>
<path d="M2060 481 c-70 -22 -131 -75 -115 -101 9 -15 30 -12 78 11 62 30 108
21 142 -29 14 -20 25 -39 25 -43 0 -3 -33 -9 -74 -12 -145 -11 -232 -92 -205
-191 16 -58 92 -106 169 -106 37 0 128 26 156 45 24 15 26 15 55 -9 38 -32 70
-41 117 -31 20 4 92 6 159 5 67 -1 131 1 142 5 29 9 26 32 -9 65 -28 26 -30
33 -30 103 0 116 22 157 84 157 16 0 32 -9 42 -25 30 -46 50 -33 79 56 31 92
27 103 -34 101 -54 -2 -83 -15 -130 -57 l-40 -36 -3 43 c-2 34 -7 44 -23 46
-26 3 -175 -84 -175 -103 0 -8 12 -20 28 -27 27 -13 27 -15 30 -119 2 -92 0
-109 -17 -130 -15 -19 -22 -21 -33 -12 -8 7 -23 10 -35 7 -30 -8 -47 22 -93
166 -42 133 -71 185 -123 212 -33 18 -122 23 -167 9z m140 -246 c17 -20 39
-100 32 -112 -11 -17 -49 -33 -77 -33 -97 0 -133 121 -45 153 30 11 78 7 90
-8z"/>
<path d="M3625 475 c-44 -17 -95 -61 -95 -82 0 -24 31 -26 74 -4 73 36 120 24
155 -40 l22 -39 -54 0 c-161 0 -267 -97 -226 -208 11 -29 26 -43 69 -65 47
-24 63 -28 112 -24 31 3 82 16 112 30 l56 26 26 -24 c34 -32 99 -41 146 -22
23 10 40 11 51 5 9 -5 64 -7 123 -6 90 3 109 6 118 21 9 14 7 20 -6 28 -43 24
-48 38 -48 133 0 79 3 97 21 120 27 34 65 34 100 0 15 -15 34 -24 42 -21 16 6
57 117 57 154 0 18 -6 23 -27 24 -76 3 -100 -6 -155 -59 l-38 -36 0 31 c0 76
-24 80 -125 19 -76 -45 -91 -70 -52 -85 13 -5 27 -17 31 -26 8 -21 6 -160 -3
-199 -7 -35 -37 -58 -50 -38 -4 7 -15 10 -25 6 -32 -12 -56 27 -97 157 -61
193 -94 232 -207 236 -41 2 -82 -3 -107 -12z m152 -233 c15 -10 43 -75 43
-101 0 -46 -86 -67 -136 -34 -54 35 -51 111 5 132 32 12 72 13 88 3z"/>
<path d="M4646 475 c-51 -18 -87 -45 -97 -73 -13 -34 15 -39 67 -13 53 25 91
27 122 5 18 -13 52 -63 52 -77 0 -2 -33 -7 -74 -10 -144 -11 -230 -87 -209
-187 7 -39 61 -86 114 -100 54 -15 130 -4 194 26 49 23 50 23 70 4 47 -44 144
-50 180 -10 24 27 12 62 -20 54 -33 -8 -49 20 -92 156 -42 135 -74 191 -124
219 -43 25 -124 27 -183 6z m160 -250 c9 -14 19 -45 21 -68 5 -39 3 -44 -21
-55 -36 -16 -71 -15 -105 3 -32 16 -41 33 -41 75 0 64 111 98 146 45z"/>
</g>
</svg>
